<?xml version="1.0" encoding="utf-8"?>
<!-- Generator: Adobe Illustrator 21.0.2, SVG Export Plug-In . SVG Version: 6.00 Build 0)  -->
<svg version="1.1" baseProfile="tiny" id="Calque_1"
	 xmlns="http://www.w3.org/2000/svg" xmlns:xlink="http://www.w3.org/1999/xlink" x="0px" y="0px" viewBox="0 0 50 50"
	 xml:space="preserve">
<path fill="#4BC4B1" d="M25,0C11.2,0,0,11.2,0,25s11.2,25,25,25s25-11.2,25-25S38.8,0,25,0z M24.6,5c1.8,0,3.2,1.4,3.2,3.2
	c0,1.8-1.4,3.2-3.2,3.2c-1.8,0-3.2-1.4-3.2-3.2C21.4,6.4,22.8,5,24.6,5z M38.6,15.4L29,16.6l0,9.6l4.7,15.6c0.2,1-0.3,2-1.3,2.2
	c-1,0.2-2-0.3-2.2-1.3l-4.8-14.2h-1.5L19.5,43c-0.4,0.9-1.4,1.4-2.4,1c-0.9-0.4-1.5-1.4-1.1-2.4l4-15.3v-9.8l-8.9-1.2
	c-0.9-0.1-1.5-0.9-1.5-1.8c0.1-0.9,0.9-1.6,1.8-1.5L22.3,13H27l11.5-0.9c0.9,0,1.7,0.7,1.7,1.6C40.2,14.6,39.5,15.4,38.6,15.4z"/>
</svg>
